<?xml version="1.0" encoding="UTF-8"?>
<!DOCTYPE svg PUBLIC "-//W3C//DTD SVG 1.1//EN" "http://www.w3.org/Graphics/SVG/1.1/DTD/svg11.dtd">
<svg xmlns="http://www.w3.org/2000/svg" version="1.1" width="500px" height="500px" style="shape-rendering:geometricPrecision; text-rendering:geometricPrecision; image-rendering:optimizeQuality; fill-rule:evenodd; clip-rule:evenodd" xmlns:xlink="http://www.w3.org/1999/xlink">
<g><path style="opacity:1" fill="#fefefe" d="M -0.5,-0.5 C 166.167,-0.5 332.833,-0.5 499.5,-0.5C 499.5,166.167 499.5,332.833 499.5,499.5C 332.833,499.5 166.167,499.5 -0.5,499.5C -0.5,332.833 -0.5,166.167 -0.5,-0.5 Z"/></g>
<g><path style="opacity:1" fill="#6084b5" d="M 246.5,95.5 C 321.916,91.187 375.75,122.854 408,190.5C 428.714,246.262 421.381,297.929 386,345.5C 343.067,394.478 289.567,412.311 225.5,399C 161.354,378.856 123.521,335.69 112,269.5C 105.966,204.077 130.132,153.243 184.5,117C 203.791,105.515 224.458,98.3488 246.5,95.5 Z"/></g>
<g><path style="opacity:1" fill="#f9fafc" d="M 248.5,100.5 C 301.349,97.1569 345.182,115.157 380,154.5C 418.775,206.46 424.108,261.794 396,320.5C 361.241,377.463 310.408,402.963 243.5,397C 186.495,386.257 146.995,354.09 125,300.5C 107.627,247.756 115.627,199.422 149,155.5C 175.132,124.516 208.299,106.182 248.5,100.5 Z"/></g>
<g><path style="opacity:1" fill="#5b80b3" d="M 253.5,107.5 C 311.346,106.001 355.846,129.334 387,177.5C 412.313,223.78 412.98,270.447 389,317.5C 357.292,369.442 310.792,393.609 249.5,390C 190.062,380.891 150.229,348.058 130,291.5C 113.72,231.776 128.553,181.276 174.5,140C 197.697,121.437 224.031,110.604 253.5,107.5 Z"/></g>
<g><path style="opacity:1" fill="#fdfdfe" d="M 254.5,120.5 C 320.342,119.974 364.842,150.307 388,211.5C 400.444,256.795 391.778,297.461 362,333.5C 361.667,311.167 361.333,288.833 361,266.5C 347.823,257.246 334.489,248.246 321,239.5C 306.766,248.035 292.6,256.701 278.5,265.5C 277.5,302.827 277.167,340.161 277.5,377.5C 269.167,377.5 260.833,377.5 252.5,377.5C 252.833,332.828 252.5,288.162 251.5,243.5C 238.5,234.833 225.5,226.167 212.5,217.5C 197.916,226.375 183.416,235.375 169,244.5C 168.667,274.167 168.333,303.833 168,333.5C 142.296,302.366 132.296,266.699 138,226.5C 153.265,165.061 192.099,129.727 254.5,120.5 Z"/></g>
<g><path style="opacity:1" fill="#5b80b3" d="M 278.5,259.5 C 277.84,226.597 277.174,194.264 276.5,162.5C 263.903,169.915 251.403,177.581 239,185.5C 238.667,199.833 238.333,214.167 238,228.5C 235.305,226.306 232.472,224.306 229.5,222.5C 228.334,208.512 228.167,194.512 229,180.5C 247.584,169.125 266.084,157.625 284.5,146C 286.289,145.48 287.956,145.813 289.5,147C 306,158.167 322.5,169.333 339,180.5C 339.667,202.167 339.667,223.833 339,245.5C 332.968,241.303 326.801,237.303 320.5,233.5C 306.472,242.178 292.472,250.844 278.5,259.5 Z"/></g>
<g><path style="opacity:1" fill="#d0dbe9" d="M 278.5,259.5 C 278.44,260.043 278.107,260.376 277.5,260.5C 276.5,227.84 276.167,195.173 276.5,162.5C 277.174,194.264 277.84,226.597 278.5,259.5 Z"/></g>
<g><path style="opacity:1" fill="#fcfdfd" d="M 205.5,230.5 C 205.832,274.67 205.499,318.67 204.5,362.5C 194.35,357.022 185.016,350.356 176.5,342.5C 175.333,311.172 175.167,279.839 176,248.5C 185.778,242.363 195.611,236.363 205.5,230.5 Z"/></g>
<g><path style="opacity:1" fill="#fefefe" d="M 311.5,252.5 C 312.833,271.488 313.5,290.822 313.5,310.5C 313.167,329.833 312.833,349.167 312.5,368.5C 303.561,372.026 294.394,374.692 285,376.5C 284.167,340.829 284.333,305.162 285.5,269.5C 294.574,264.307 303.24,258.64 311.5,252.5 Z"/></g>
<g><path style="opacity:1" fill="#7f9cc4" d="M 205.5,230.5 C 206.831,274.669 206.831,319.002 205.5,363.5C 204.893,363.376 204.56,363.043 204.5,362.5C 205.499,318.67 205.832,274.67 205.5,230.5 Z"/></g>
</svg>
